Coordinates
version=1
nRows=14
nColumns=40
inDegrees=yes

Units are S.I. units (second, meters, Newtons, ...)
Angles are in degrees.

endheader
time	pelvis_tilt	pelvis_list	pelvis_rotation	pelvis_tx	pelvis_ty	pelvis_tz	hip_flexion_r	hip_adduction_r	hip_rotation_r	knee_angle_r	knee_angle_r_beta	ankle_angle_r	subtalar_angle_r	mtp_angle_r	hip_flexion_l	hip_adduction_l	hip_rotation_l	knee_angle_l	knee_angle_l_beta	ankle_angle_l	subtalar_angle_l	mtp_angle_l	lumbar_extension	lumbar_bending	lumbar_rotation	arm_flex_r	arm_add_r	arm_rot_r	elbow_flex_r	pro_sup_r	wrist_flex_r	wrist_dev_r	arm_flex_l	arm_add_l	arm_rot_l	elbow_flex_l	pro_sup_l	wrist_flex_l	wrist_dev_l
     56.75342857	     -4.34743684	     -4.36662800	     -3.41008443	      0.80482576	      0.93334897	      0.39377765	     29.85963594	     -2.42215385	     -8.47111297	     40.11797817	     40.11797817	      4.68964275	    -16.10662403	      3.74915328	     11.20319765	     -4.39229243	     -8.60888030	     18.81849715	     18.81849715	     13.53150182	    -12.63855982	     -2.60241508	    -10.22030183	      4.82166915	      2.32463764	      3.31675339	    -13.69358215	     -5.08922192	     22.75831533	     47.28882242	      0.00000000	      0.00000000	     13.22000325	    -15.86856814	    -14.01286235	     63.14052046	     47.11636730	      0.00000000	      0.00000000
     56.76685714	     -4.39897017	     -4.31105011	     -3.64568788	      0.80525512	      0.93316885	      0.39406292	     29.59156804	     -2.20451507	     -8.87545503	     36.06372920	     36.06372920	      4.79401694	    -14.37318766	      2.75195887	     10.47247320	     -4.30324439	     -8.87032922	     18.35240785	     18.35240785	     13.77897505	    -12.45730423	     -2.67965115	    -10.30313823	      4.82419832	      2.82098528	      1.36150576	    -14.18097636	     -5.69598893	     21.32578863	     47.38694101	      0.00000000	      0.00000000	     13.89861032	    -15.85234551	    -14.26743632	     65.31260055	     47.17840806	      0.00000000	      0.00000000
     56.78028571	     -4.55008778	     -4.35874241	     -3.78403667	      0.80571899	      0.93280880	      0.39453056	     29.28225564	     -1.83496094	     -9.40523903	     31.87143918	     31.87143918	      4.98083863	    -12.47845655	      2.62368424	      9.95318842	     -4.34204059	     -8.95758904	     18.06408408	     18.06408408	     14.02529620	    -12.41084283	     -2.77383395	    -10.20831673	      4.95033026	      2.71217471	     -0.34213984	    -14.67267801	     -6.02080563	     20.47740984	     47.43936837	      0.00000000	      0.00000000	     14.33414719	    -16.16684795	    -14.47968887	     66.50994490	     47.21991569	      0.00000000	      0.00000000
     56.79371429	     -4.80036058	     -4.31024799	     -3.96370282	      0.80630075	      0.93216286	      0.39527911	     29.06903273	     -1.49358675	     -9.84506986	     27.79769799	     27.79769799	      5.17474820	    -10.36561311	      2.63820803	      9.50439677	     -4.30390932	     -9.13972340	     17.72428791	     17.72428791	     14.23831219	    -12.30441140	     -2.86819100	     -9.97485567	      4.93282957	      2.72501230	     -2.07556311	    -14.92252228	     -6.28212156	     19.77259436	     47.47893067	      0.00000000	      0.00000000	     14.80569436	    -16.46826283	    -14.69843636	     67.80027378	     47.26311920	      0.00000000	      0.00000000
     56.80714286	     -4.73737345	     -4.18630603	     -4.06918611	      0.80719473	      0.93171755	      0.39605362	     28.43680302	     -1.36426446	    -10.74334869	     23.81112575	     23.81112575	      4.75896582	     -7.54200493	      0.63992105	      8.68142316	     -4.17959297	     -9.42270551	     17.33828785	     17.33828785	     14.42762158	    -11.99846065	     -3.33756469	    -10.19430074	      4.74314015	      2.64754225	     -3.93820511	    -15.11051293	     -8.79103935	     19.89752226	     47.69945884	      0.00000000	      0.00000000	     14.54138445	    -16.78082465	    -15.05256184	     71.17120562	     47.37858193	      0.00000000	      0.00000000
     56.82057143	     -4.84163326	     -4.14010287	     -4.15086036	      0.80808741	      0.93102998	      0.39713612	     28.03258721	     -1.00815462	    -11.27891908	     20.19108141	     20.19108141	      4.86469849	     -5.11779630	      1.21082953	      8.09042585	     -4.16002669	     -9.54957478	     17.05649686	     17.05649686	     14.68425611	    -11.80420307	     -3.49940842	    -10.11003569	      4.69217238	      2.69544570	     -5.63879670	    -15.35023592	     -9.11586565	     19.39114318	     47.73376905	      0.00000000	      0.00000000	     15.08609958	    -16.92545190	    -15.23438758	     72.15092405	     47.41743128	      0.00000000	      0.00000000
     56.83400000	     -4.92744197	     -4.01054470	     -4.22656618	      0.80913055	      0.93023902	      0.39832695	     27.80442067	     -0.84679652	    -12.08872918	     17.32752521	     17.32752521	      5.55026164	     -2.06366136	      3.37373607	      7.42840056	     -4.06892709	     -9.83341097	     16.68533555	     16.68533555	     14.88084623	    -11.44336042	     -3.97057430	    -10.06576873	      4.51130825	      2.89460560	     -7.86217197	    -15.32554529	    -11.19293248	     20.43610985	     47.81995878	      0.00000000	      0.00000000	     15.42809270	    -17.02388034	    -15.20701110	     73.73473232	     47.49373044	      0.00000000	      0.00000000
     56.84742857	     -5.00236387	     -3.93100255	     -4.27487993	      0.81031568	      0.92938513	      0.39978890	     27.50168619	     -0.53814539	    -12.48261429	     14.65908855	     14.65908855	      5.44344545	     -0.08410297	      4.13842890	      6.77774847	     -4.03657163	    -10.00272611	     16.38163086	     16.38163086	     15.16126975	    -11.17646357	     -4.14965959	     -9.96519603	      4.38119665	      2.86915599	     -9.33185143	    -15.37284328	    -11.42820545	     20.17077856	     47.83014149	      0.00000000	      0.00000000	     15.83365257	    -17.19409090	    -15.33801936	     74.62769327	     47.52734819	      0.00000000	      0.00000000
     56.86085714	     -5.19415916	     -3.70587180	     -4.30933514	      0.81147653	      0.92820129	      0.40138222	     27.56777035	     -0.42555259	    -12.62192600	     12.81392727	     12.81392727	      5.21931083	      1.27348353	      4.76662896	      6.28360043	     -3.86569929	    -10.17683700	     16.10689749	     16.10689749	     15.43365994	    -10.91396287	     -4.32598174	     -9.69150592	      4.06427942	      2.73675923	    -10.70087430	    -15.28544343	    -11.57549009	     19.97780418	     47.83240085	      0.00000000	      0.00000000	     16.10823044	    -17.47230161	    -15.50491666	     75.30097182	     47.55582145	      0.00000000	      0.00000000
     56.87428571	     -5.06567645	     -3.74672836	     -4.28913834	      0.81316315	      0.92756067	      0.40309532	     27.07864623	     -0.14482342	    -13.18816864	     11.18024494	     11.18024494	      5.10892498	      3.07793598	      5.66767041	      5.28766549	     -3.96965704	    -10.42888555	     15.64372278	     15.64372278	     15.76494612	    -10.34411976	     -4.57665139	     -9.80525965	      4.06858789	      2.77699379	    -12.13098165	    -15.24750296	    -11.86577996	     20.29667556	     47.81844374	      0.00000000	      0.00000000	     16.29311780	    -17.36340232	    -15.53677303	     76.44312472	     47.58555499	      0.00000000	      0.00000000
     56.88771429	     -5.00299055	     -3.69700833	     -4.24942233	      0.81489251	      0.92665559	      0.40490264	     26.92990052	     -0.05259231	    -13.57181624	     10.49301254	     10.49301254	      5.04579978	      4.24744832	      6.54681742	      4.41126565	     -4.00334170	    -10.72913299	     15.26400365	     15.26400365	     16.11762112	     -9.67302823	     -4.84716757	     -9.81437199	      3.95678222	      2.74032901	    -13.61006628	    -15.11450436	    -12.28966250	     21.16799015	     47.78206971	      0.00000000	      0.00000000	     16.35382550	    -17.42676550	    -15.58383024	     77.46685604	     47.61685220	      0.00000000	      0.00000000
     56.90114286	     -5.05850742	     -3.62926015	     -4.18532888	      0.81670410	      0.92550813	      0.40679501	     26.94197170	      0.00289995	    -13.60325520	     10.27341269	     10.27341269	      4.68794277	      4.50082653	      6.91012276	      3.68584865	     -4.01511756	    -10.88212032	     14.92375254	     14.92375254	     16.49567578	     -9.21211968	     -4.95216240	     -9.66050062	      3.87035682	      2.60815983	    -14.72276594	    -14.90163603	    -12.55070785	     21.65903349	     47.75534925	      0.00000000	      0.00000000	     16.38996764	    -17.47607328	    -15.61722486	     77.93580636	     47.63582341	      0.00000000	      0.00000000
     56.91457143	     -5.01153638	     -3.61254834	     -4.07966405	      0.81880396	      0.92440685	      0.40882484	     26.81282703	      0.05417933	    -13.57969001	     10.42948094	     10.42948094	      4.17690504	      4.33381423	      6.75299714	      2.80918443	     -4.09797711	    -11.11626796	     14.54956923	     14.54956923	     16.98192676	     -8.53614057	     -4.91370330	     -9.57204479	      3.81202173	      2.57423582	    -15.81935065	    -14.63707461	    -12.88060968	     22.44299896	     47.71281661	      0.00000000	      0.00000000	     16.39682036	    -17.42176194	    -15.57486892	     78.39703170	     47.65345833	      0.00000000	      0.00000000
     56.92800000	     -5.03668618	     -3.68522077	     -3.87328457	      0.82104382	      0.92311247	      0.41080131	     26.70688135	      0.10898378	    -13.73373394	     10.86075373	     10.86075373	      3.66384614	      4.05352876	      6.72086674	      2.13886967	     -4.27596302	    -10.97870028	     14.40314248	     14.40314248	     17.38655382	     -8.36841034	     -4.96868529	     -9.34120242	      3.92075767	      2.32329483	    -16.37682146	    -14.39396409	    -12.91612205	     22.38608249	     47.70802897	      0.00000000	      0.00000000	     16.25980969	    -17.37932897	    -15.56108890	     78.40487122	     47.65365348	      0.00000000	      0.00000000
